<svg width="231" height="79" viewBox="0 0 231 79" fill="none" xmlns="http://www.w3.org/2000/svg">
<path d="M79 0H0V79H79V79C79 66.3639 68.7564 56.1202 56.1202 56.1202H35.2177C30.4572 56.1202 25.364 55.2119 22.5092 51.4023C16.7353 43.6973 18.3758 32.0942 23.7312 26.2811C26.0646 23.7482 29.7251 23.3115 33.1691 23.3115H58.2067C59.9948 23.3115 61.4444 24.761 61.4444 26.5492V26.5492C61.4444 28.3373 59.9948 29.7869 58.2067 29.7869H33.3363C27.8527 29.7869 23.4074 34.2322 23.4074 39.7158V39.7158C23.4074 45.1995 27.8527 49.6448 33.3363 49.6448H51.2037C66.5552 49.6448 79 37.2 79 21.8485V0Z" fill="#FFF100"/>
<path d="M104.582 53.5H89.6516V25.8113H104.582V29.9607H94.848V37.0186H103.961V41.1681H94.848V49.3118H104.582V53.5ZM114.217 53.5L106.655 32.4814H112.045L115.807 44.6195C115.988 45.1107 116.13 45.6536 116.234 46.2482C116.363 46.817 116.479 47.3857 116.583 47.9545C116.686 48.4974 116.738 48.9757 116.738 49.3894H116.893C116.944 48.9499 117.009 48.4586 117.087 47.9157C117.19 47.347 117.319 46.7782 117.474 46.2094C117.63 45.6407 117.772 45.1107 117.901 44.6195L121.701 32.4814H127.092L119.53 53.5H114.217ZM138.157 32.0936C139.967 32.0936 141.518 32.4814 142.811 33.257C144.129 34.0068 145.151 35.0926 145.874 36.5145C146.598 37.9106 146.96 39.6169 146.96 41.6334V44.1153H134.085C134.137 46.0285 134.603 47.515 135.482 48.575C136.386 49.6091 137.653 50.1262 139.282 50.1262C140.575 50.1262 141.725 49.9969 142.733 49.7384C143.742 49.454 144.789 49.0533 145.874 48.5362V52.4529C144.892 52.9442 143.871 53.3061 142.811 53.5388C141.751 53.7715 140.445 53.8878 138.894 53.8878C136.929 53.8878 135.184 53.5 133.659 52.7244C132.159 51.923 130.983 50.7208 130.13 49.1179C129.277 47.515 128.85 45.5243 128.85 43.1458C128.85 40.7415 129.238 38.7249 130.014 37.0962C130.789 35.4416 131.875 34.2007 133.271 33.3734C134.693 32.5202 136.322 32.0936 138.157 32.0936ZM138.235 35.7001C137.072 35.7001 136.128 36.1267 135.404 36.9799C134.706 37.8072 134.292 39.0481 134.163 40.7027H142.074C142.074 39.7203 141.932 38.8542 141.648 38.1045C141.363 37.3547 140.937 36.773 140.368 36.3594C139.825 35.9199 139.114 35.7001 138.235 35.7001ZM162.112 32.0936C162.474 32.0936 162.849 32.1066 163.237 32.1324C163.624 32.1583 163.948 32.21 164.206 32.2875L163.741 36.8247C163.482 36.773 163.172 36.7343 162.81 36.7084C162.474 36.6567 162.112 36.6308 161.724 36.6308C161.078 36.6308 160.444 36.7601 159.824 37.0186C159.203 37.2513 158.648 37.6133 158.156 38.1045C157.665 38.5698 157.265 39.1774 156.954 39.9271C156.67 40.6769 156.528 41.5688 156.528 42.6029V53.5H151.37V32.4814H155.326L156.024 36.1267H156.295C156.683 35.377 157.161 34.7048 157.73 34.1102C158.324 33.4897 158.984 32.9985 159.708 32.6365C160.457 32.2746 161.259 32.0936 162.112 32.0936ZM168.044 53.5V25.8113H173.241V49.3118H183.905V53.5H168.044ZM205.949 42.9519C205.949 44.7099 205.729 46.2611 205.289 47.6055C204.85 48.9499 204.204 50.1003 203.35 51.0569C202.523 51.9876 201.515 52.6986 200.326 53.1898C199.136 53.6551 197.805 53.8878 196.331 53.8878C194.961 53.8878 193.681 53.6551 192.492 53.1898C191.329 52.6986 190.321 51.9876 189.467 51.0569C188.64 50.1003 187.994 48.9499 187.528 47.6055C187.063 46.2611 186.83 44.7099 186.83 42.9519C186.83 40.6252 187.205 38.6603 187.955 37.0574C188.731 35.4287 189.842 34.2007 191.29 33.3734C192.738 32.5202 194.457 32.0936 196.448 32.0936C198.309 32.0936 199.951 32.5202 201.373 33.3734C202.795 34.2007 203.906 35.4287 204.708 37.0574C205.535 38.6603 205.949 40.6252 205.949 42.9519ZM192.066 42.9519C192.066 44.4256 192.221 45.6924 192.531 46.7523C192.841 47.7865 193.307 48.575 193.927 49.1179C194.573 49.6608 195.401 49.9323 196.409 49.9323C197.417 49.9323 198.232 49.6608 198.852 49.1179C199.498 48.575 199.964 47.7865 200.248 46.7523C200.558 45.6924 200.713 44.4256 200.713 42.9519C200.713 41.4525 200.558 40.1986 200.248 39.1903C199.938 38.1562 199.46 37.3806 198.813 36.8635C198.193 36.3206 197.378 36.0492 196.37 36.0492C194.845 36.0492 193.746 36.6438 193.074 37.833C192.402 39.0223 192.066 40.7286 192.066 42.9519ZM217.08 32.0936C218.372 32.0936 219.497 32.3522 220.454 32.8692C221.41 33.3863 222.212 34.1619 222.858 35.196H223.013L223.478 32.4814H227.822V53.6551C227.822 55.6458 227.46 57.3133 226.736 58.6577C226.012 60.0279 224.926 61.062 223.478 61.7601C222.056 62.4581 220.247 62.8071 218.049 62.8071C216.576 62.8071 215.231 62.7037 214.016 62.4969C212.827 62.3159 211.689 61.9927 210.604 61.5274V57.4943C211.353 57.8304 212.116 58.1148 212.892 58.3475C213.693 58.606 214.52 58.7999 215.373 58.9292C216.227 59.0584 217.131 59.1231 218.088 59.1231C219.587 59.1231 220.725 58.6706 221.501 57.7658C222.302 56.8609 222.703 55.5682 222.703 53.8878V53.3449C222.703 52.9571 222.716 52.5047 222.742 51.9876C222.793 51.4705 222.832 51.0569 222.858 50.7466H222.703C222.082 51.8325 221.307 52.6339 220.376 53.151C219.445 53.6422 218.321 53.8878 217.002 53.8878C214.65 53.8878 212.788 52.9312 211.418 51.0181C210.074 49.105 209.401 46.4421 209.401 43.0295C209.401 40.7286 209.712 38.7637 210.332 37.135C210.953 35.5062 211.832 34.2653 212.969 33.4121C214.132 32.5331 215.503 32.0936 217.08 32.0936ZM218.631 36.0879C217.752 36.0879 217.015 36.3594 216.42 36.9023C215.852 37.4194 215.412 38.195 215.102 39.2291C214.792 40.2632 214.637 41.5559 214.637 43.1071C214.637 45.3821 214.973 47.1014 215.645 48.2647C216.317 49.4281 217.325 50.0098 218.67 50.0098C219.445 50.0098 220.105 49.9064 220.647 49.6996C221.19 49.4669 221.63 49.105 221.966 48.6138C222.302 48.0967 222.561 47.4504 222.742 46.6748C222.923 45.8733 223.013 44.9168 223.013 43.8051V43.0683C223.013 41.3878 222.858 40.0435 222.548 39.0352C222.263 38.0011 221.798 37.2513 221.152 36.786C220.505 36.3206 219.665 36.0879 218.631 36.0879Z" fill="#5E5E5E"/>
</svg>
